STARTFONT 2.1
FONT -Monotype-Arial Narrow-Regular-I-Normal--19-140-100-100-P-81-iso8859-9
SIZE 14 100 100
FONTBOUNDINGBOX 21 22 -4 -4

STARTPROPERTIES 24
FOUNDRY "Monotype"
FAMILY_NAME "Arial Narrow"
WEIGHT_NAME "Regular"
SLANT "I"
SETWIDTH_NAME "Normal"
ADD_STYLE_NAME ""
PIXEL_SIZE 19
POINT_SIZE 140
RESOLUTION_X 100
RESOLUTION_Y 100
SPACING "P"
AVERAGE_WIDTH 81
CHARSET_REGISTRY "iso8859"
CHARSET_ENCODING "9"
FACE_NAME "Arial Narrow it ISO Latin5"
_DEC_DEVICE_FONTNAMES "PS=arialnarrow-italic-lat5"
COPYRIGHT "Copyright (c) 1994 Monotype Typography Ltd."
CAP_HEIGHT 15
X_HEIGHT 11
WEIGHT 10
QUAD_WIDTH 9
DEFAULT_CHAR 160
FONT_DESCENT 4
FONT_ASCENT 18
ENDPROPERTIES

CHARS 191

STARTCHAR space
ENCODING 32
SWIDTH 228 0
DWIDTH 4 0
BBX 0 0 0 0
BITMAP
ENDCHAR

STARTCHAR exclam
ENCODING 33
SWIDTH 228 0
DWIDTH 4 0
BBX 5 14 0 0
BITMAP
18
18
18
30
30
30
30
60
60
60
60
00
C0
C0
ENDCHAR

STARTCHAR quotedbl
ENCODING 34
SWIDTH 291 0
DWIDTH 6 0
BBX 6 5 0 9
BITMAP
6C
6C
6C
D8
D8
ENDCHAR

STARTCHAR numbersign
ENCODING 35
SWIDTH 456 0
DWIDTH 9 0
BBX 9 14 0 0
BITMAP
1B00
1B00
1B00
7F80
7F80
1B00
1B00
3600
3600
FF00
FF00
3600
6C00
6C00
ENDCHAR

STARTCHAR dollar
ENCODING 36
SWIDTH 456 0
DWIDTH 9 0
BBX 8 17 1 -2
BITMAP
04
3E
7F
6B
68
68
68
38
1C
16
16
D6
D6
FC
78
20
20
ENDCHAR

STARTCHAR percent
ENCODING 37
SWIDTH 729 0
DWIDTH 14 0
BBX 13 14 1 0
BITMAP
1830
3C30
6C60
CCC0
D8C0
F180
6300
0330
0678
0CD8
0D98
19B0
31E0
60C0
ENDCHAR

STARTCHAR ampersand
ENCODING 38
SWIDTH 547 0
DWIDTH 10 0
BBX 9 14 1 0
BITMAP
0800
1C00
3600
3600
3600
1C00
3800
7800
CD80
CF00
C600
CE00
7F80
3180
ENDCHAR

STARTCHAR quoteright
ENCODING 39
SWIDTH 182 0
DWIDTH 3 0
BBX 3 5 1 9
BITMAP
60
60
20
40
80
ENDCHAR

STARTCHAR parenleft
ENCODING 40
SWIDTH 273 0
DWIDTH 5 0
BBX 5 18 1 -4
BITMAP
18
30
30
60
60
60
C0
C0
C0
C0
C0
C0
C0
C0
C0
60
60
30
ENDCHAR

STARTCHAR parenright
ENCODING 41
SWIDTH 273 0
DWIDTH 5 0
BBX 5 18 -1 -4
BITMAP
60
30
30
18
18
18
18
18
18
18
18
18
30
30
30
60
60
C0
ENDCHAR

STARTCHAR asterisk
ENCODING 42
SWIDTH 319 0
DWIDTH 6 0
BBX 5 6 1 8
BITMAP
20
A8
F8
70
F8
50
ENDCHAR

STARTCHAR plus
ENCODING 43
SWIDTH 479 0
DWIDTH 9 0
BBX 8 8 1 3
BITMAP
18
18
18
FF
FF
18
18
18
ENDCHAR

STARTCHAR comma
ENCODING 44
SWIDTH 228 0
DWIDTH 4 0
BBX 3 5 -1 -3
BITMAP
60
60
20
40
80
ENDCHAR

STARTCHAR minus
ENCODING 45
SWIDTH 479 0
DWIDTH 9 0
BBX 8 2 1 6
BITMAP
FF
FF
ENDCHAR

STARTCHAR period
ENCODING 46
SWIDTH 228 0
DWIDTH 4 0
BBX 2 2 0 0
BITMAP
C0
C0
ENDCHAR

STARTCHAR slash
ENCODING 47
SWIDTH 228 0
DWIDTH 4 0
BBX 8 15 -2 -1
BITMAP
03
03
03
06
06
0C
0C
18
18
30
30
60
60
C0
C0
ENDCHAR

STARTCHAR zero
ENCODING 48
SWIDTH 456 0
DWIDTH 9 0
BBX 8 14 1 0
BITMAP
0E
1F
33
63
63
63
C3
C6
C6
C6
C6
CC
F8
70
ENDCHAR

STARTCHAR one
ENCODING 49
SWIDTH 456 0
DWIDTH 9 0
BBX 6 14 2 0
BITMAP
0C
1C
3C
6C
D8
18
18
30
30
30
30
60
60
60
ENDCHAR

STARTCHAR two
ENCODING 50
SWIDTH 456 0
DWIDTH 9 0
BBX 8 14 1 0
BITMAP
1C
3E
63
63
03
06
06
0C
18
30
60
C0
FE
FE
ENDCHAR

STARTCHAR three
ENCODING 51
SWIDTH 456 0
DWIDTH 9 0
BBX 8 14 1 0
BITMAP
0E
1F
33
33
03
06
1C
1E
06
06
0C
CC
F8
70
ENDCHAR

STARTCHAR four
ENCODING 52
SWIDTH 456 0
DWIDTH 9 0
BBX 8 14 1 0
BITMAP
03
07
0F
1A
1E
36
66
6C
CC
FF
FF
18
18
18
ENDCHAR

STARTCHAR five
ENCODING 53
SWIDTH 456 0
DWIDTH 9 0
BBX 9 14 0 0
BITMAP
1F80
1F80
1800
3000
3E00
3F00
3300
0300
0300
0300
C600
E600
7C00
3800
ENDCHAR

STARTCHAR six
ENCODING 54
SWIDTH 456 0
DWIDTH 9 0
BBX 8 14 1 0
BITMAP
0E
1F
33
60
60
DC
FE
E6
C6
C6
C6
CC
F8
70
ENDCHAR

STARTCHAR seven
ENCODING 55
SWIDTH 456 0
DWIDTH 9 0
BBX 7 14 2 0
BITMAP
FE
FE
06
06
0C
18
18
30
30
60
60
C0
C0
C0
ENDCHAR

STARTCHAR eight
ENCODING 56
SWIDTH 456 0
DWIDTH 9 0
BBX 8 14 1 0
BITMAP
0E
1F
33
33
33
36
1C
3C
66
C6
C6
CC
F8
70
ENDCHAR

STARTCHAR nine
ENCODING 57
SWIDTH 456 0
DWIDTH 9 0
BBX 8 14 1 0
BITMAP
0E
1F
33
33
63
63
67
7F
36
06
0C
CC
F8
70
ENDCHAR

STARTCHAR colon
ENCODING 58
SWIDTH 228 0
DWIDTH 4 0
BBX 3 10 1 0
BITMAP
60
60
00
00
00
00
00
00
C0
C0
ENDCHAR

STARTCHAR semicolon
ENCODING 59
SWIDTH 228 0
DWIDTH 4 0
BBX 4 13 0 -3
BITMAP
30
30
00
00
00
00
00
00
60
60
20
40
80
ENDCHAR

STARTCHAR less
ENCODING 60
SWIDTH 479 0
DWIDTH 9 0
BBX 8 9 1 2
BITMAP
03
0F
3C
70
E0
70
3C
0F
03
ENDCHAR

STARTCHAR equal
ENCODING 61
SWIDTH 479 0
DWIDTH 9 0
BBX 8 6 1 4
BITMAP
FF
FF
00
00
FF
FF
ENDCHAR

STARTCHAR greater
ENCODING 62
SWIDTH 479 0
DWIDTH 9 0
BBX 8 9 1 2
BITMAP
C0
F0
3C
0E
07
0E
3C
F0
C0
ENDCHAR

STARTCHAR question
ENCODING 63
SWIDTH 456 0
DWIDTH 9 0
BBX 7 14 1 0
BITMAP
38
7C
C6
C6
06
06
0C
18
30
30
30
00
60
60
ENDCHAR

STARTCHAR at
ENCODING 64
SWIDTH 832 0
DWIDTH 16 0
BBX 14 18 1 -4
BITMAP
0FC0
1FF0
3018
6018
676C
CFEC
CCCC
D8CC
D8CC
D8CC
D8D8
D998
CFF0
6EE0
600C
3018
1FF0
0FE0
ENDCHAR

STARTCHAR A
ENCODING 65
SWIDTH 547 0
DWIDTH 10 0
BBX 10 14 -1 0
BITMAP
0380
0380
0780
0580
0D80
0D80
18C0
18C0
3FC0
3FC0
60C0
60C0
C0C0
C0C0
ENDCHAR

STARTCHAR B
ENCODING 66
SWIDTH 547 0
DWIDTH 10 0
BBX 10 14 1 0
BITMAP
1F80
1FC0
18C0
30C0
30C0
3180
3F00
7F80
6180
6180
C180
C300
FF00
FE00
ENDCHAR

STARTCHAR C
ENCODING 67
SWIDTH 592 0
DWIDTH 11 0
BBX 11 14 1 0
BITMAP
0780
1FC0
38E0
3060
6000
6000
6000
C000
C000
C0C0
C0C0
E180
7F00
3E00
ENDCHAR

STARTCHAR D
ENCODING 68
SWIDTH 592 0
DWIDTH 11 0
BBX 11 14 1 0
BITMAP
1F80
1FC0
18E0
3060
3060
3060
3060
60C0
60C0
60C0
C180
C380
FF00
FE00
ENDCHAR

STARTCHAR E
ENCODING 69
SWIDTH 547 0
DWIDTH 10 0
BBX 10 14 1 0
BITMAP
1FC0
1FC0
1800
3000
3000
3000
3F80
7F80
6000
6000
C000
C000
FF00
FF00
ENDCHAR

STARTCHAR F
ENCODING 70
SWIDTH 501 0
DWIDTH 10 0
BBX 10 14 1 0
BITMAP
1FC0
1FC0
1800
3000
3000
3000
3F80
7F80
6000
6000
C000
C000
C000
C000
ENDCHAR

STARTCHAR G
ENCODING 71
SWIDTH 638 0
DWIDTH 12 0
BBX 12 14 1 0
BITMAP
07C0
1FE0
3870
3030
6000
6000
6000
C7E0
C7E0
C0C0
C0C0
E380
7F00
3E00
ENDCHAR

STARTCHAR H
ENCODING 72
SWIDTH 592 0
DWIDTH 11 0
BBX 11 14 1 0
BITMAP
1860
1860
1860
30C0
30C0
30C0
3FC0
7F80
6180
6180
C380
C300
C300
C300
ENDCHAR

STARTCHAR I
ENCODING 73
SWIDTH 228 0
DWIDTH 5 0
BBX 5 14 1 0
BITMAP
18
18
18
30
30
30
30
60
60
60
C0
C0
C0
C0
ENDCHAR

STARTCHAR J
ENCODING 74
SWIDTH 410 0
DWIDTH 8 0
BBX 9 14 0 0
BITMAP
0180
0180
0180
0300
0300
0300
0300
0600
0600
0600
CC00
CC00
FC00
7800
ENDCHAR

STARTCHAR K
ENCODING 75
SWIDTH 547 0
DWIDTH 10 0
BBX 11 14 1 0
BITMAP
1860
18C0
1980
3300
3600
3C00
3800
7C00
6600
6600
C300
C300
C180
C180
ENDCHAR

STARTCHAR L
ENCODING 76
SWIDTH 456 0
DWIDTH 8 0
BBX 7 14 1 0
BITMAP
18
18
18
30
30
30
30
60
60
60
C0
C0
FE
FE
ENDCHAR

STARTCHAR M
ENCODING 77
SWIDTH 683 0
DWIDTH 14 0
BBX 14 14 1 0
BITMAP
181C
183C
1C2C
3C68
3C58
34D8
3498
65B0
6730
6730
6630
C660
C660
C460
ENDCHAR

STARTCHAR N
ENCODING 78
SWIDTH 592 0
DWIDTH 11 0
BBX 11 14 1 0
BITMAP
1860
1860
1860
38C0
38C0
2CC0
6CC0
6580
6580
6780
C780
C300
C300
C300
ENDCHAR

STARTCHAR O
ENCODING 79
SWIDTH 638 0
DWIDTH 12 0
BBX 11 14 1 0
BITMAP
0780
1FC0
38E0
3060
6060
6060
6060
C0C0
C0C0
C0C0
C180
E380
7F00
3E00
ENDCHAR

STARTCHAR P
ENCODING 80
SWIDTH 547 0
DWIDTH 10 0
BBX 10 14 1 0
BITMAP
1F80
1FC0
18C0
30C0
30C0
3180
3F00
7E00
6000
6000
6000
C000
C000
C000
ENDCHAR

STARTCHAR Q
ENCODING 81
SWIDTH 638 0
DWIDTH 12 0
BBX 11 15 1 -1
BITMAP
0780
1FC0
38E0
3060
6060
6060
6060
C0C0
C0C0
C0C0
CD80
E780
7F00
3F80
00C0
ENDCHAR

STARTCHAR R
ENCODING 82
SWIDTH 592 0
DWIDTH 11 0
BBX 11 14 1 0
BITMAP
1FC0
1FE0
1860
1860
3060
31C0
3F80
3E00
6600
6300
6300
C180
C180
C0C0
ENDCHAR

STARTCHAR S
ENCODING 83
SWIDTH 547 0
DWIDTH 10 0
BBX 10 14 1 0
BITMAP
0F00
1F80
38C0
30C0
3000
3C00
1E00
0700
0380
C180
C180
6300
7E00
1C00
ENDCHAR

STARTCHAR T
ENCODING 84
SWIDTH 501 0
DWIDTH 9 0
BBX 10 14 2 0
BITMAP
FFC0
FFC0
0C00
0C00
1800
1800
1800
3000
3000
3000
3000
6000
6000
6000
ENDCHAR

STARTCHAR U
ENCODING 85
SWIDTH 592 0
DWIDTH 11 0
BBX 11 14 1 0
BITMAP
1860
1860
1860
30C0
30C0
30C0
30C0
6180
6180
6180
C300
C300
FE00
7C00
ENDCHAR

STARTCHAR V
ENCODING 86
SWIDTH 547 0
DWIDTH 10 0
BBX 10 14 2 0
BITMAP
C0C0
C0C0
C180
C180
C300
C300
C300
6600
6600
6C00
6C00
7800
7000
7000
ENDCHAR

STARTCHAR W
ENCODING 87
SWIDTH 774 0
DWIDTH 15 0
BBX 15 14 2 0
BITMAP
C306
C306
C30C
C70C
CD98
CD98
D9B0
D9B0
D9E0
F1E0
F1C0
E1C0
E180
C180
ENDCHAR

STARTCHAR X
ENCODING 88
SWIDTH 547 0
DWIDTH 10 0
BBX 11 14 0 0
BITMAP
3060
30C0
18C0
1980
0D80
0F00
0600
0600
0F00
1B00
3180
6180
60C0
C0C0
ENDCHAR

STARTCHAR Y
ENCODING 89
SWIDTH 547 0
DWIDTH 9 0
BBX 9 14 2 0
BITMAP
C180
C180
6300
6300
3600
3600
3C00
1800
1800
1800
3000
3000
3000
3000
ENDCHAR

STARTCHAR Z
ENCODING 90
SWIDTH 501 0
DWIDTH 10 0
BBX 10 14 1 0
BITMAP
3FC0
3FC0
0180
0180
0300
0600
0600
0C00
1800
3000
3000
6000
FF80
FF80
ENDCHAR

STARTCHAR bracketleft
ENCODING 91
SWIDTH 228 0
DWIDTH 4 0
BBX 6 17 0 -3
BITMAP
1C
1C
18
18
30
30
30
30
60
60
60
60
60
C0
C0
E0
E0
ENDCHAR

STARTCHAR backslash
ENCODING 92
SWIDTH 228 0
DWIDTH 4 0
BBX 8 15 -2 -1
BITMAP
C0
C0
60
60
30
30
18
18
0C
0C
06
06
03
03
03
ENDCHAR

STARTCHAR bracketright
ENCODING 93
SWIDTH 228 0
DWIDTH 4 0
BBX 6 17 -1 -3
BITMAP
1C
1C
0C
0C
18
18
18
18
30
30
30
30
30
60
60
E0
E0
ENDCHAR

STARTCHAR asciicircum
ENCODING 94
SWIDTH 385 0
DWIDTH 7 0
BBX 7 8 0 6
BITMAP
18
18
3C
3C
6C
6C
C6
C6
ENDCHAR

STARTCHAR underscore
ENCODING 95
SWIDTH 456 0
DWIDTH 9 0
BBX 9 2 0 -3
BITMAP
FF80
FF80
ENDCHAR

STARTCHAR quoteleft
ENCODING 96
SWIDTH 182 0
DWIDTH 3 0
BBX 3 5 1 9
BITMAP
20
40
80
C0
C0
ENDCHAR

STARTCHAR a
ENCODING 97
SWIDTH 456 0
DWIDTH 9 0
BBX 8 10 1 0
BITMAP
3E
7F
63
03
3E
7E
C6
CC
FC
6C
ENDCHAR

STARTCHAR b
ENCODING 98
SWIDTH 456 0
DWIDTH 9 0
BBX 9 14 0 0
BITMAP
1800
1800
1800
3000
3600
3F00
3180
6180
6180
6180
6300
E300
DE00
DC00
ENDCHAR

STARTCHAR c
ENCODING 99
SWIDTH 410 0
DWIDTH 8 0
BBX 7 10 1 0
BITMAP
1C
3E
66
60
C0
C0
C6
C6
7C
38
ENDCHAR

STARTCHAR d
ENCODING 100
SWIDTH 456 0
DWIDTH 9 0
BBX 9 14 1 0
BITMAP
0180
0180
0180
0300
1B00
3F00
6300
6600
C600
C600
CC00
CC00
FC00
7400
ENDCHAR

STARTCHAR e
ENCODING 101
SWIDTH 456 0
DWIDTH 9 0
BBX 8 10 1 0
BITMAP
1C
3E
63
7F
FF
C0
C6
C6
7C
38
ENDCHAR

STARTCHAR f
ENCODING 102
SWIDTH 228 0
DWIDTH 4 0
BBX 7 14 0 0
BITMAP
06
0E
18
18
7C
7C
30
60
60
60
60
C0
C0
C0
ENDCHAR

STARTCHAR g
ENCODING 103
SWIDTH 456 0
DWIDTH 9 0
BBX 10 14 0 -4
BITMAP
0EC0
1FC0
3180
3180
6180
6300
6300
6300
7E00
3600
0600
C600
7C00
3800
ENDCHAR

STARTCHAR h
ENCODING 104
SWIDTH 456 0
DWIDTH 9 0
BBX 9 14 0 0
BITMAP
1800
1800
1800
3000
3700
3F80
3180
6180
6300
6300
6300
C600
C600
C600
ENDCHAR

STARTCHAR i
ENCODING 105
SWIDTH 182 0
DWIDTH 4 0
BBX 5 14 0 0
BITMAP
18
18
00
00
30
30
30
60
60
60
60
C0
C0
C0
ENDCHAR

STARTCHAR j
ENCODING 106
SWIDTH 182 0
DWIDTH 4 0
BBX 7 18 -2 -4
BITMAP
06
06
00
00
0C
0C
0C
18
18
18
18
30
30
30
60
60
E0
C0
ENDCHAR

STARTCHAR k
ENCODING 107
SWIDTH 410 0
DWIDTH 8 0
BBX 9 14 0 0
BITMAP
1800
1800
1800
3000
3180
3300
3600
6C00
7800
7800
6C00
C600
C600
C300
ENDCHAR

STARTCHAR l
ENCODING 108
SWIDTH 182 0
DWIDTH 4 0
BBX 5 14 0 0
BITMAP
18
18
18
30
30
30
30
60
60
60
60
C0
C0
C0
ENDCHAR

STARTCHAR m
ENCODING 109
SWIDTH 683 0
DWIDTH 12 0
BBX 12 10 0 0
BITMAP
3660
3FF0
3330
6330
6660
6660
6660
CCC0
CCC0
CCC0
ENDCHAR

STARTCHAR n
ENCODING 110
SWIDTH 456 0
DWIDTH 9 0
BBX 9 10 0 0
BITMAP
3700
3F80
3180
6180
6300
6300
6300
C600
C600
C600
ENDCHAR

STARTCHAR o
ENCODING 111
SWIDTH 456 0
DWIDTH 9 0
BBX 8 10 1 0
BITMAP
1C
3E
63
63
C3
C3
C6
C6
7C
38
ENDCHAR

STARTCHAR p
ENCODING 112
SWIDTH 456 0
DWIDTH 9 0
BBX 10 14 -1 -4
BITMAP
1B80
1FC0
1CC0
18C0
30C0
30C0
3180
3180
7F00
6E00
6000
C000
C000
C000
ENDCHAR

STARTCHAR q
ENCODING 113
SWIDTH 456 0
DWIDTH 9 0
BBX 9 14 1 -4
BITMAP
1D80
3F80
6300
6300
C300
C600
C600
CE00
FC00
6C00
0C00
1800
1800
1800
ENDCHAR

STARTCHAR r
ENCODING 114
SWIDTH 273 0
DWIDTH 5 0
BBX 7 10 0 0
BITMAP
36
3E
30
60
60
60
60
C0
C0
C0
ENDCHAR

STARTCHAR s
ENCODING 115
SWIDTH 410 0
DWIDTH 7 0
BBX 7 10 0 0
BITMAP
3C
76
66
70
38
1C
0C
CC
DC
78
ENDCHAR

STARTCHAR t
ENCODING 116
SWIDTH 228 0
DWIDTH 4 0
BBX 6 13 0 0
BITMAP
18
18
30
7C
7C
30
60
60
60
C0
C0
E0
60
ENDCHAR

STARTCHAR u
ENCODING 117
SWIDTH 456 0
DWIDTH 9 0
BBX 9 10 0 0
BITMAP
3180
3180
3180
6300
6300
6300
C600
C600
FE00
7600
ENDCHAR

STARTCHAR v
ENCODING 118
SWIDTH 410 0
DWIDTH 8 0
BBX 8 10 1 0
BITMAP
C3
C6
C6
CC
CC
D8
D8
70
60
60
ENDCHAR

STARTCHAR w
ENCODING 119
SWIDTH 592 0
DWIDTH 11 0
BBX 11 10 1 0
BITMAP
CC60
CC60
CCC0
DCC0
DD80
F580
E700
E700
C600
C600
ENDCHAR

STARTCHAR x
ENCODING 120
SWIDTH 410 0
DWIDTH 7 0
BBX 8 10 0 0
BITMAP
63
33
36
1C
18
18
3C
6C
C6
C6
ENDCHAR

STARTCHAR y
ENCODING 121
SWIDTH 410 0
DWIDTH 8 0
BBX 9 14 0 -4
BITMAP
6180
6180
6300
6300
3600
3600
3C00
1800
1800
1800
3000
3000
E000
C000
ENDCHAR

STARTCHAR z
ENCODING 122
SWIDTH 410 0
DWIDTH 8 0
BBX 8 10 0 0
BITMAP
3F
3F
06
0C
18
18
30
60
FE
FE
ENDCHAR

STARTCHAR braceleft
ENCODING 123
SWIDTH 274 0
DWIDTH 5 0
BBX 6 17 0 -3
BITMAP
0C
18
18
18
18
18
30
60
C0
60
60
60
60
C0
C0
C0
60
ENDCHAR

STARTCHAR bar
ENCODING 124
SWIDTH 213 0
DWIDTH 4 0
BBX 2 18 1 -4
BITMAP
C0
C0
C0
C0
C0
C0
C0
C0
C0
C0
C0
C0
C0
C0
C0
C0
C0
C0
ENDCHAR

STARTCHAR braceright
ENCODING 125
SWIDTH 274 0
DWIDTH 5 0
BBX 6 17 -1 -3
BITMAP
18
0C
0C
0C
18
18
18
18
0C
18
30
60
60
60
60
60
C0
ENDCHAR

STARTCHAR asciitilde
ENCODING 126
SWIDTH 479 0
DWIDTH 9 0
BBX 8 3 1 5
BITMAP
73
FF
CE
ENDCHAR

STARTCHAR space
ENCODING 160
SWIDTH 228 0
DWIDTH 5 0
BBX 0 0 0 0
BITMAP
ENDCHAR

STARTCHAR exclamdown
ENCODING 161
SWIDTH 273 0
DWIDTH 5 0
BBX 4 14 1 -4
BITMAP
30
30
00
60
60
60
60
60
60
60
C0
C0
C0
C0
ENDCHAR

STARTCHAR cent
ENCODING 162
SWIDTH 456 0
DWIDTH 9 0
BBX 7 18 1 -4
BITMAP
02
04
04
00
3C
7E
CE
D0
D0
D0
EC
EC
FC
78
40
40
80
80
ENDCHAR

STARTCHAR sterling
ENCODING 163
SWIDTH 456 0
DWIDTH 9 0
BBX 9 14 0 0
BITMAP
0F00
1F80
1980
3000
3000
3000
7C00
7C00
3000
3000
6000
7300
FF00
CE00
ENDCHAR

STARTCHAR currency
ENCODING 164
SWIDTH 456 0
DWIDTH 9 0
BBX 8 10 1 2
BITMAP
42
DB
7E
66
42
42
66
7E
DB
42
ENDCHAR

STARTCHAR yen
ENCODING 165
SWIDTH 456 0
DWIDTH 10 0
BBX 10 14 0 0
BITMAP
60C0
60C0
3180
3180
1B00
1B00
7FC0
7FC0
0C00
FF80
FF80
1800
1800
1800
ENDCHAR

STARTCHAR brokenbar
ENCODING 166
SWIDTH 213 0
DWIDTH 4 0
BBX 2 18 1 -4
BITMAP
C0
C0
C0
C0
C0
C0
C0
00
00
00
00
C0
C0
C0
C0
C0
C0
C0
ENDCHAR

STARTCHAR section
ENCODING 167
SWIDTH 456 0
DWIDTH 9 0
BBX 9 18 0 -4
BITMAP
0700
0F80
1980
3000
3000
1C00
3E00
6600
6300
6300
3600
1C00
0E00
0600
C600
CC00
7800
3800
ENDCHAR

STARTCHAR dieresis
ENCODING 168
SWIDTH 273 0
DWIDTH 5 0
BBX 5 2 0 11
BITMAP
D8
D8
ENDCHAR

STARTCHAR copyright
ENCODING 169
SWIDTH 604 0
DWIDTH 11 0
BBX 12 14 0 0
BITMAP
1F80
3FC0
6060
6760
CFB0
D830
D830
D830
D9B0
CFB0
6760
6060
3FC0
1F80
ENDCHAR

STARTCHAR ordfeminine
ENCODING 170
SWIDTH 303 0
DWIDTH 6 0
BBX 6 7 0 7
BITMAP
38
7C
0C
78
D8
F8
68
ENDCHAR

STARTCHAR guillemotleft
ENCODING 171
SWIDTH 456 0
DWIDTH 9 0
BBX 7 9 1 0
BITMAP
36
36
6C
D8
D8
6C
6C
6C
36
ENDCHAR

STARTCHAR logicalnot
ENCODING 172
SWIDTH 479 0
DWIDTH 9 0
BBX 7 6 1 4
BITMAP
FE
FE
02
02
02
02
ENDCHAR

STARTCHAR hyphen
ENCODING 173
SWIDTH 273 0
DWIDTH 5 0
BBX 4 2 1 10
BITMAP
F0
F0
ENDCHAR

STARTCHAR registered
ENCODING 174
SWIDTH 604 0
DWIDTH 11 0
BBX 11 14 0 0
BITMAP
1F00
3F80
60C0
7EC0
DB60
DB60
DE60
DF60
DB60
DB60
FBC0
60C0
7F80
3F00
ENDCHAR

STARTCHAR macron
ENCODING 175
SWIDTH 273 0
DWIDTH 5 0
BBX 5 2 0 12
BITMAP
F8
F8
ENDCHAR

STARTCHAR degree
ENCODING 176
SWIDTH 328 0
DWIDTH 6 0
BBX 5 5 1 9
BITMAP
70
F8
D8
F8
70
ENDCHAR

STARTCHAR plusminus
ENCODING 177
SWIDTH 479 0
DWIDTH 9 0
BBX 7 11 2 2
BITMAP
10
10
10
FE
FE
10
10
10
00
FE
FE
ENDCHAR

STARTCHAR twosuperior
ENCODING 178
SWIDTH 273 0
DWIDTH 5 0
BBX 5 7 0 7
BITMAP
30
78
18
30
60
F8
F8
ENDCHAR

STARTCHAR threesuperior
ENCODING 179
SWIDTH 273 0
DWIDTH 5 0
BBX 5 7 0 7
BITMAP
30
78
18
70
30
F0
60
ENDCHAR

STARTCHAR acute
ENCODING 180
SWIDTH 273 0
DWIDTH 5 0
BBX 4 3 1 11
BITMAP
30
60
C0
ENDCHAR

STARTCHAR mu
ENCODING 181
SWIDTH 456 0
DWIDTH 9 0
BBX 9 14 0 -4
BITMAP
3180
3180
3180
3180
3180
6300
6300
7700
7F00
DB00
C000
C000
C000
C000
ENDCHAR

STARTCHAR paragraph
ENCODING 182
SWIDTH 440 0
DWIDTH 8 0
BBX 9 18 0 -4
BITMAP
1F80
7F80
FB00
FB00
FB00
FB00
7B00
3B00
1B00
1B00
1B00
1B00
1B00
1B00
1B00
1B00
1B00
1B00
ENDCHAR

STARTCHAR periodcentered
ENCODING 183
SWIDTH 228 0
DWIDTH 4 0
BBX 2 2 1 6
BITMAP
C0
C0
ENDCHAR

STARTCHAR cedilla
ENCODING 184
SWIDTH 273 0
DWIDTH 5 0
BBX 5 4 0 -4
BITMAP
30
18
70
E0
ENDCHAR

STARTCHAR onesuperior
ENCODING 185
SWIDTH 273 0
DWIDTH 5 0
BBX 3 7 1 7
BITMAP
20
60
E0
60
C0
C0
C0
ENDCHAR

STARTCHAR ordmasculine
ENCODING 186
SWIDTH 299 0
DWIDTH 6 0
BBX 5 7 1 7
BITMAP
38
48
88
88
88
90
E0
ENDCHAR

STARTCHAR guillemotright
ENCODING 187
SWIDTH 456 0
DWIDTH 9 0
BBX 7 9 1 0
BITMAP
D8
6C
6C
6C
36
36
6C
D8
D8
ENDCHAR

STARTCHAR onequarter
ENCODING 188
SWIDTH 684 0
DWIDTH 13 0
BBX 12 15 1 -1
BITMAP
2060
6060
E0C0
6180
6180
C300
C600
C600
0C60
19E0
1B60
37F0
67F0
60C0
C0C0
ENDCHAR

STARTCHAR onehalf
ENCODING 189
SWIDTH 684 0
DWIDTH 13 0
BBX 11 15 1 -1
BITMAP
2060
6060
E0C0
6180
6180
C300
C600
C600
0CC0
19E0
1860
30C0
6180
63E0
C3E0
ENDCHAR

STARTCHAR threequarters
ENCODING 190
SWIDTH 684 0
DWIDTH 13 0
BBX 12 15 1 -1
BITMAP
3060
7860
18C0
7180
3180
F300
6600
0600
0C60
19E0
1B60
37F0
67F0
60C0
C0C0
ENDCHAR

STARTCHAR questiondown
ENCODING 191
SWIDTH 501 0
DWIDTH 10 0
BBX 7 14 2 -4
BITMAP
0C
0C
00
18
18
18
30
60
C0
C0
C6
C6
7C
38
ENDCHAR

STARTCHAR Agrave
ENCODING 192
SWIDTH 547 0
DWIDTH 10 0
BBX 10 18 -1 0
BITMAP
0E00
0300
0180
0000
0380
0380
0780
0580
0D80
0D80
18C0
18C0
3FC0
3FC0
60C0
60C0
C0C0
C0C0
ENDCHAR

STARTCHAR Aacute
ENCODING 193
SWIDTH 547 0
DWIDTH 10 0
BBX 10 18 -1 0
BITMAP
00C0
0180
0300
0000
0380
0380
0780
0580
0D80
0D80
18C0
18C0
3FC0
3FC0
60C0
60C0
C0C0
C0C0
ENDCHAR

STARTCHAR Acircumflex
ENCODING 194
SWIDTH 547 0
DWIDTH 10 0
BBX 11 18 -1 0
BITMAP
0080
01C0
0360
0000
0380
0380
0780
0580
0D80
0D80
18C0
18C0
3FC0
3FC0
60C0
60C0
C0C0
C0C0
ENDCHAR

STARTCHAR Atilde
ENCODING 195
SWIDTH 547 0
DWIDTH 10 0
BBX 11 18 -1 0
BITMAP
0320
07E0
04C0
0000
0380
0380
0780
0580
0D80
0D80
18C0
18C0
3FC0
3FC0
60C0
60C0
C0C0
C0C0
ENDCHAR

STARTCHAR Adieresis
ENCODING 196
SWIDTH 547 0
DWIDTH 10 0
BBX 11 18 -1 0
BITMAP
0660
0660
0000
0000
0380
0380
0780
0580
0D80
0D80
18C0
18C0
3FC0
3FC0
60C0
60C0
C0C0
C0C0
ENDCHAR

STARTCHAR Aring
ENCODING 197
SWIDTH 547 0
DWIDTH 10 0
BBX 10 18 -1 0
BITMAP
0380
06C0
06C0
0280
0380
0380
0780
0580
0D80
0D80
18C0
18C0
3FC0
3FC0
60C0
60C0
C0C0
C0C0
ENDCHAR

STARTCHAR AE
ENCODING 198
SWIDTH 820 0
DWIDTH 16 0
BBX 16 14 0 0
BITMAP
01FF
03FF
0660
06C0
0CC0
0CC0
19FE
19FE
3F80
3F80
6300
6300
C3FE
C3FE
ENDCHAR

STARTCHAR Ccedilla
ENCODING 199
SWIDTH 592 0
DWIDTH 11 0
BBX 11 18 1 -4
BITMAP
0780
1FC0
38E0
3060
6000
6000
6000
C000
C000
C0C0
C0C0
E180
7F00
3E00
1800
0C00
0C00
3800
ENDCHAR

STARTCHAR Egrave
ENCODING 200
SWIDTH 547 0
DWIDTH 10 0
BBX 10 18 1 0
BITMAP
0C00
0600
0300
0000
1FC0
1FC0
1800
3000
3000
3000
3F80
7F80
6000
6000
C000
C000
FF00
FF00
ENDCHAR

STARTCHAR Eacute
ENCODING 201
SWIDTH 547 0
DWIDTH 10 0
BBX 10 18 1 0
BITMAP
00C0
0180
0300
0000
1FC0
1FC0
1800
3000
3000
3000
3F80
7F80
6000
6000
C000
C000
FF00
FF00
ENDCHAR

STARTCHAR Ecircumflex
ENCODING 202
SWIDTH 547 0
DWIDTH 10 0
BBX 10 18 1 0
BITMAP
0100
0380
06C0
0000
1FC0
1FC0
1800
3000
3000
3000
3F80
7F80
6000
6000
C000
C000
FF00
FF00
ENDCHAR

STARTCHAR Edieresis
ENCODING 203
SWIDTH 547 0
DWIDTH 10 0
BBX 10 17 1 0
BITMAP
0CC0
0CC0
0000
1FC0
1FC0
1800
3000
3000
3000
3F80
7F80
6000
6000
C000
C000
FF00
FF00
ENDCHAR

STARTCHAR Igrave
ENCODING 204
SWIDTH 228 0
DWIDTH 5 0
BBX 5 18 1 0
BITMAP
60
30
18
00
18
18
18
30
30
30
30
60
60
60
C0
C0
C0
C0
ENDCHAR

STARTCHAR Iacute
ENCODING 205
SWIDTH 228 0
DWIDTH 5 0
BBX 7 18 1 0
BITMAP
06
0C
18
00
18
18
18
30
30
30
30
60
60
60
C0
C0
C0
C0
ENDCHAR

STARTCHAR Icircumflex
ENCODING 206
SWIDTH 228 0
DWIDTH 5 0
BBX 7 18 1 0
BITMAP
08
1C
36
00
18
18
18
30
30
30
30
60
60
60
C0
C0
C0
C0
ENDCHAR

STARTCHAR Idieresis
ENCODING 207
SWIDTH 228 0
DWIDTH 5 0
BBX 7 18 1 0
BITMAP
36
36
00
00
18
18
18
30
30
30
30
60
60
60
C0
C0
C0
C0
ENDCHAR

STARTCHAR Gbreve
ENCODING 208
SWIDTH 638 0
DWIDTH 12 0
BBX 12 18 1 0
BITMAP
0630
07F0
03E0
0000
07C0
1FE0
3870
3030
6000
6000
6000
C7E0
C7E0
C0C0
C0C0
E380
7F00
3E00
ENDCHAR

STARTCHAR Ntilde
ENCODING 209
SWIDTH 592 0
DWIDTH 11 0
BBX 11 18 1 0
BITMAP
0320
07E0
04C0
0000
1860
1860
1860
38C0
38C0
2CC0
6CC0
6580
6580
6780
C780
C300
C300
C300
ENDCHAR

STARTCHAR Ograve
ENCODING 210
SWIDTH 638 0
DWIDTH 12 0
BBX 11 18 1 0
BITMAP
0600
0300
0180
0000
0780
1FC0
38E0
3060
6060
6060
6060
C0C0
C0C0
C0C0
C180
E380
7F00
3E00
ENDCHAR

STARTCHAR Oacute
ENCODING 211
SWIDTH 638 0
DWIDTH 12 0
BBX 11 18 1 0
BITMAP
00C0
0180
0300
0000
0780
1FC0
38E0
3060
6060
6060
6060
C0C0
C0C0
C0C0
C180
E380
7F00
3E00
ENDCHAR

STARTCHAR Ocircumflex
ENCODING 212
SWIDTH 638 0
DWIDTH 12 0
BBX 11 18 1 0
BITMAP
0100
0380
06C0
0000
0780
1FC0
38E0
3060
6060
6060
6060
C0C0
C0C0
C0C0
C180
E380
7F00
3E00
ENDCHAR

STARTCHAR Otilde
ENCODING 213
SWIDTH 638 0
DWIDTH 12 0
BBX 11 18 1 0
BITMAP
0320
07E0
04C0
0000
0780
1FC0
38E0
3060
6060
6060
6060
C0C0
C0C0
C0C0
C180
E380
7F00
3E00
ENDCHAR

STARTCHAR Odieresis
ENCODING 214
SWIDTH 638 0
DWIDTH 12 0
BBX 11 17 1 0
BITMAP
0660
0660
0000
0780
1FC0
38E0
3060
6060
6060
6060
C0C0
C0C0
C0C0
C180
E380
7F00
3E00
ENDCHAR

STARTCHAR multiply
ENCODING 215
SWIDTH 479 0
DWIDTH 9 0
BBX 7 8 1 3
BITMAP
C6
C6
6C
38
38
6C
C6
C6
ENDCHAR

STARTCHAR Oslash
ENCODING 216
SWIDTH 638 0
DWIDTH 12 0
BBX 12 14 1 0
BITMAP
07B0
1FE0
39E0
31E0
6360
6360
6660
CCC0
CCC0
D8C0
D980
F380
7F00
DE00
ENDCHAR

STARTCHAR Ugrave
ENCODING 217
SWIDTH 592 0
DWIDTH 11 0
BBX 11 18 1 0
BITMAP
0600
0300
0180
0000
1860
1860
1860
30C0
30C0
30C0
30C0
6180
6180
6180
C300
C300
FE00
7C00
ENDCHAR

STARTCHAR Uacute
ENCODING 218
SWIDTH 592 0
DWIDTH 11 0
BBX 11 18 1 0
BITMAP
00C0
0180
0300
0000
1860
1860
1860
30C0
30C0
30C0
30C0
6180
6180
6180
C300
C300
FE00
7C00
ENDCHAR

STARTCHAR Ucircumflex
ENCODING 219
SWIDTH 592 0
DWIDTH 11 0
BBX 11 18 1 0
BITMAP
0100
0380
06C0
0000
1860
1860
1860
30C0
30C0
30C0
30C0
6180
6180
6180
C300
C300
FE00
7C00
ENDCHAR

STARTCHAR Udieresis
ENCODING 220
SWIDTH 592 0
DWIDTH 11 0
BBX 11 17 1 0
BITMAP
0660
0660
0000
1860
1860
1860
30C0
30C0
30C0
30C0
6180
6180
6180
C300
C300
FE00
7C00
ENDCHAR

STARTCHAR Idotaccent
ENCODING 221
SWIDTH 228 0
DWIDTH 5 0
BBX 6 17 1 0
BITMAP
0C
0C
00
18
18
18
30
30
30
30
60
60
60
C0
C0
C0
C0
ENDCHAR

STARTCHAR Scedilla
ENCODING 222
SWIDTH 547 0
DWIDTH 10 0
BBX 10 18 1 -4
BITMAP
0F00
1F80
38C0
30C0
3000
3C00
1E00
0700
0380
C180
C180
6300
7E00
1C00
1800
0C00
0C00
3800
ENDCHAR

STARTCHAR germandbls
ENCODING 223
SWIDTH 501 0
DWIDTH 10 0
BBX 9 14 0 0
BITMAP
0F00
1F80
1980
1980
3380
3700
3300
6380
6180
6180
6180
DB00
DF00
CE00
ENDCHAR

STARTCHAR agrave
ENCODING 224
SWIDTH 456 0
DWIDTH 9 0
BBX 8 14 1 0
BITMAP
30
18
0C
00
3E
7F
63
03
3E
7E
C6
CC
FC
6C
ENDCHAR

STARTCHAR aacute
ENCODING 225
SWIDTH 456 0
DWIDTH 9 0
BBX 8 14 1 0
BITMAP
06
0C
18
00
3E
7F
63
03
3E
7E
C6
CC
FC
6C
ENDCHAR

STARTCHAR acircumflex
ENCODING 226
SWIDTH 456 0
DWIDTH 9 0
BBX 8 14 1 0
BITMAP
04
0E
1B
00
3E
7F
63
03
3E
7E
C6
CC
FC
6C
ENDCHAR

STARTCHAR atilde
ENCODING 227
SWIDTH 456 0
DWIDTH 9 0
BBX 9 14 1 0
BITMAP
0C80
1F80
1300
0000
3E00
7F00
6300
0300
3E00
7E00
C600
CC00
FC00
6C00
ENDCHAR

STARTCHAR adieresis
ENCODING 228
SWIDTH 456 0
DWIDTH 9 0
BBX 8 13 1 0
BITMAP
33
33
00
3E
7F
63
03
3E
7E
C6
CC
FC
6C
ENDCHAR

STARTCHAR aring
ENCODING 229
SWIDTH 456 0
DWIDTH 9 0
BBX 8 15 1 0
BITMAP
0E
1B
1B
0E
00
3E
7F
63
03
3E
7E
C6
CC
FC
6C
ENDCHAR

STARTCHAR ae
ENCODING 230
SWIDTH 729 0
DWIDTH 14 0
BBX 13 10 1 0
BITMAP
3CE0
7FF0
6318
03F8
3FF8
7E00
C630
CE30
FBE0
71C0
ENDCHAR

STARTCHAR ccedilla
ENCODING 231
SWIDTH 410 0
DWIDTH 8 0
BBX 7 14 1 -4
BITMAP
1C
3E
66
60
C0
C0
C6
C6
7C
38
30
18
18
70
ENDCHAR

STARTCHAR egrave
ENCODING 232
SWIDTH 456 0
DWIDTH 9 0
BBX 8 14 1 0
BITMAP
30
18
0C
00
1C
3E
63
7F
FF
C0
C6
C6
7C
38
ENDCHAR

STARTCHAR eacute
ENCODING 233
SWIDTH 456 0
DWIDTH 9 0
BBX 8 14 1 0
BITMAP
06
0C
18
00
1C
3E
63
7F
FF
C0
C6
C6
7C
38
ENDCHAR

STARTCHAR ecircumflex
ENCODING 234
SWIDTH 456 0
DWIDTH 9 0
BBX 8 14 1 0
BITMAP
04
0E
1B
00
1C
3E
63
7F
FF
C0
C6
C6
7C
38
ENDCHAR

STARTCHAR edieresis
ENCODING 235
SWIDTH 456 0
DWIDTH 9 0
BBX 8 13 1 0
BITMAP
33
33
00
1C
3E
63
7F
FF
C0
C6
C6
7C
38
ENDCHAR

STARTCHAR igrave
ENCODING 236
SWIDTH 228 0
DWIDTH 4 0
BBX 5 14 0 0
BITMAP
60
30
18
00
30
30
30
60
60
60
60
C0
C0
C0
ENDCHAR

STARTCHAR iacute
ENCODING 237
SWIDTH 228 0
DWIDTH 4 0
BBX 6 14 0 0
BITMAP
0C
18
30
00
30
30
30
60
60
60
60
C0
C0
C0
ENDCHAR

STARTCHAR icircumflex
ENCODING 238
SWIDTH 228 0
DWIDTH 4 0
BBX 6 14 0 0
BITMAP
10
38
6C
00
30
30
30
60
60
60
60
C0
C0
C0
ENDCHAR

STARTCHAR idieresis
ENCODING 239
SWIDTH 228 0
DWIDTH 4 0
BBX 6 13 0 0
BITMAP
6C
6C
00
30
30
30
60
60
60
60
C0
C0
C0
ENDCHAR

STARTCHAR gbreve
ENCODING 240
SWIDTH 456 0
DWIDTH 9 0
BBX 10 18 0 -4
BITMAP
18C0
1FC0
0F80
0000
0EC0
1FC0
3180
3180
6180
6300
6300
6300
7E00
3600
0600
C600
7C00
3800
ENDCHAR

STARTCHAR ntilde
ENCODING 241
SWIDTH 456 0
DWIDTH 9 0
BBX 10 14 0 0
BITMAP
0640
0FC0
0980
0000
3700
3F80
3180
6180
6300
6300
6300
C600
C600
C600
ENDCHAR

STARTCHAR ograve
ENCODING 242
SWIDTH 456 0
DWIDTH 9 0
BBX 8 14 1 0
BITMAP
30
18
0C
00
1C
3E
63
63
C3
C3
C6
C6
7C
38
ENDCHAR

STARTCHAR oacute
ENCODING 243
SWIDTH 456 0
DWIDTH 9 0
BBX 8 14 1 0
BITMAP
06
0C
18
00
1C
3E
63
63
C3
C3
C6
C6
7C
38
ENDCHAR

STARTCHAR ocircumflex
ENCODING 244
SWIDTH 456 0
DWIDTH 9 0
BBX 8 14 1 0
BITMAP
04
0E
1B
00
1C
3E
63
63
C3
C3
C6
C6
7C
38
ENDCHAR

STARTCHAR otilde
ENCODING 245
SWIDTH 456 0
DWIDTH 9 0
BBX 9 14 1 0
BITMAP
0C80
1F80
1300
0000
1C00
3E00
6300
6300
C300
C300
C600
C600
7C00
3800
ENDCHAR

STARTCHAR odieresis
ENCODING 246
SWIDTH 456 0
DWIDTH 9 0
BBX 8 13 1 0
BITMAP
33
33
00
1C
3E
63
63
C3
C3
C6
C6
7C
38
ENDCHAR

STARTCHAR divide
ENCODING 247
SWIDTH 479 0
DWIDTH 9 0
BBX 8 8 1 2
BITMAP
18
18
00
FF
FF
00
18
18
ENDCHAR

STARTCHAR oslash
ENCODING 248
SWIDTH 501 0
DWIDTH 9 0
BBX 8 12 1 -1
BITMAP
03
1E
3E
6F
6B
6B
D6
D6
F6
7C
78
C0
ENDCHAR

STARTCHAR ugrave
ENCODING 249
SWIDTH 456 0
DWIDTH 9 0
BBX 9 14 0 0
BITMAP
1800
0C00
0600
0000
3180
3180
3180
6300
6300
6300
C600
C600
FE00
7600
ENDCHAR

STARTCHAR uacute
ENCODING 250
SWIDTH 456 0
DWIDTH 9 0
BBX 9 14 0 0
BITMAP
0180
0300
0600
0000
3180
3180
3180
6300
6300
6300
C600
C600
FE00
7600
ENDCHAR

STARTCHAR ucircumflex
ENCODING 251
SWIDTH 456 0
DWIDTH 9 0
BBX 9 14 0 0
BITMAP
0200
0700
0D80
0000
3180
3180
3180
6300
6300
6300
C600
C600
FE00
7600
ENDCHAR

STARTCHAR udieresis
ENCODING 252
SWIDTH 456 0
DWIDTH 9 0
BBX 9 13 0 0
BITMAP
1980
1980
0000
3180
3180
3180
6300
6300
6300
C600
C600
FE00
7600
ENDCHAR

STARTCHAR dotlessi
ENCODING 253
SWIDTH 228 0
DWIDTH 4 0
BBX 4 10 0 0
BITMAP
30
30
30
60
60
60
60
C0
C0
C0
ENDCHAR

STARTCHAR scedilla
ENCODING 254
SWIDTH 410 0
DWIDTH 7 0
BBX 7 14 0 -4
BITMAP
3C
76
66
70
38
1C
0C
CC
DC
78
30
18
18
70
ENDCHAR

STARTCHAR ydieresis
ENCODING 255
SWIDTH 410 0
DWIDTH 8 0
BBX 9 17 0 -4
BITMAP
1980
1980
0000
6180
6180
6300
6300
3600
3600
3C00
1800
1800
1800
3000
3000
E000
C000
ENDCHAR
ENDFONT
